#N canvas 0 0 1920 976 12;
#X floatatom 766 196 5 0 0 0 - - - 0;
#X obj 622 497 *~;
#X floatatom 685 441 5 0 0 0 - - - 0;
#X obj 685 264 vsl 19 162 0 1 0 0 empty empty empty 0 -9 0 12 #c6ffc7 #000000 #000000 0 1;
#X obj 659 1057 dac~;
#X obj 735 445 noise~;
#X obj 928 530 snapshot~;
#X floatatom 928 623 5 0 0 0 - - - 0;
#X obj 735 491 *~;
#X obj 928 335 metro 50;
#X obj 928 310 tgl 19 0 empty empty empty 0 -10 0 12 #fcfcfc #000000 #000000 0 1;
#X obj 1196 722 phasor~;
#X obj 1196 819 *~;
#X floatatom 1260 721 5 0 0 0 - - - 0;
#X obj 1260 550 vsl 19 162 0 1 0 0 empty empty empty 0 -9 0 12 #c6ffc7 #000000 #000000 0 1;
#X msg 176 215 \; pd dsp \$1;
#X obj 176 190 tgl 19 0 empty empty empty 17 7 0 10 #dfdfdf #000000 #000000 0 1;
#X text 200 189 DSP on/off;
#X obj 1340 453 snapshot~;
#X floatatom 1340 481 5 0 0 0 - - - 0;
#X obj 1341 426 osc~ 0.2;
#X obj 968 247 *;
#X obj 968 182 abs;
#X obj 968 208 t b f;
#X obj 1341 313 snapshot~;
#X floatatom 1341 373 5 0 0 0 - - - 0;
#X obj 1341 284 osc~ 0.08;
#X obj 1341 339 abs;
#X obj 622 444 osc~ 20;
#X obj 178 90 bonk~;
#X obj 178 122 bng 19 250 50 0 empty empty empty 0 -10 0 12 #fcfcfc #000000 #000000;
#X obj 179 57 adc~;
#X obj 624 991 *~;
#X obj 717 990 *~;
#X obj 673 817 vsl 19 162 0 1 0 0 empty empty empty 0 -9 0 12 #c6ffc7 #000000 #000000 0 1;
#X msg 673 790 0.5;
#X obj 673 765 loadbang;
#X obj 1260 752 / 1.5;
#X floatatom 928 557 5 0 0 0 - - - 0;
#X obj 928 597 clip 0 1;
#X obj 611 699 hsl 162 19 -1 1 0 0 empty empty empty -2 -10 0 12 #c6ffc7 #000000 #000000 0 1;
#X obj 735 893 *~;
#X obj 553 800 * -1;
#X obj 535 895 *~;
#X obj 553 830 clip 0 1;
#X obj 776 494 bonk~;
#X obj 776 520 bng 19 250 50 0 empty empty empty 0 -10 0 12 #fcfcfc #000000 #000000;
#X floatatom 776 605 5 0 0 0 - - - 0;
#X floatatom 776 658 8 0 0 0 - - - 0;
#X obj 776 548 random 100;
#X obj 776 579 - 50;
#X obj 776 634 * -0.01;
#X obj 753 831 clip 0 1;
#X obj 622 418 * 2;
#X floatatom 1122 240 5 0 0 0 - - - 0;
#X obj 1125 265 hsl 162 19 0 120 0 0 empty empty empty -2 -10 0 12 #e3c6ff #000000 #000000 0 1;
#X obj 1343 517 hsl 162 19 -1 1 0 0 empty empty empty -2 -10 0 12 #e3c6ff #000000 #000000 0 1;
#X obj 766 171 random 120;
#X floatatom 767 863 5 0 0 0 - - - 0;
#X text 41 383 Obyek \, Pesan \, Kotak angka \, Slider;
#X text 41 410 phasor~;
#X text 40 441 Modulasi amplitude phasor~;
#X text 40 456 Modulasi frekuensi phasor~;
#X text 41 397 osc~ + amp + dac~;
#X text 40 425 scope;
#X obj 888 971 x_scope;
#X obj 1195 875 x_scope;
#X obj 276 970 x_scope;
#X obj 268 666 x_scope;
#X obj 623 1082 x_rec;
#X obj 624 1019 clip~ -1 1;
#X obj 716 1017 clip~ -1 1;
#X text 40 472 Eksperimen taruh kabel dimana" \, clip~;
#X text 48 275 Experimen Bunyi Dengan Kreatif Koding;
#X text 41 304 Materi lokakarya di Berbagi Ruang & Kopi;
#X text 40 332 Oleh Sarah Lecompte-Bergeron;
#X text 41 318 v. 2023-02-25;
#X connect 0 0 21 0;
#X connect 0 0 53 0;
#X connect 1 0 32 0;
#X connect 1 0 68 0;
#X connect 2 0 1 1;
#X connect 2 0 8 1;
#X connect 3 0 2 0;
#X connect 5 0 8 0;
#X connect 5 0 6 0;
#X connect 5 0 45 0;
#X connect 6 0 38 0;
#X connect 7 0 3 0;
#X connect 8 0 41 0;
#X connect 8 0 43 0;
#X connect 9 0 6 0;
#X connect 9 0 18 0;
#X connect 9 0 24 0;
#X connect 10 0 9 0;
#X connect 11 0 12 0;
#X connect 12 0 33 0;
#X connect 12 0 66 0;
#X connect 13 0 22 0;
#X connect 13 0 37 0;
#X connect 14 0 13 0;
#X connect 16 0 15 0;
#X connect 16 0 10 0;
#X connect 18 0 19 0;
#X connect 19 0 14 0;
#X connect 19 0 56 0;
#X connect 20 0 18 0;
#X connect 21 0 11 0;
#X connect 21 0 54 0;
#X connect 22 0 23 0;
#X connect 23 0 21 0;
#X connect 23 1 21 1;
#X connect 24 0 27 0;
#X connect 25 0 20 0;
#X connect 26 0 24 0;
#X connect 27 0 25 0;
#X connect 28 0 1 0;
#X connect 29 0 30 0;
#X connect 30 0 57 0;
#X connect 31 0 29 0;
#X connect 32 0 70 0;
#X connect 33 0 71 0;
#X connect 34 0 32 1;
#X connect 34 0 33 1;
#X connect 35 0 34 0;
#X connect 36 0 35 0;
#X connect 37 0 12 1;
#X connect 38 0 39 0;
#X connect 39 0 7 0;
#X connect 40 0 42 0;
#X connect 40 0 52 0;
#X connect 41 0 33 0;
#X connect 41 0 65 0;
#X connect 42 0 44 0;
#X connect 43 0 32 0;
#X connect 43 0 67 0;
#X connect 44 0 43 1;
#X connect 45 0 46 0;
#X connect 46 0 49 0;
#X connect 47 0 51 0;
#X connect 48 0 40 0;
#X connect 49 0 50 0;
#X connect 50 0 47 0;
#X connect 51 0 48 0;
#X connect 52 0 41 1;
#X connect 52 0 58 0;
#X connect 53 0 28 0;
#X connect 54 0 55 0;
#X connect 57 0 0 0;
#X connect 58 0 26 0;
#X connect 70 0 69 0;
#X connect 70 0 4 0;
#X connect 71 0 4 1;
#X connect 71 0 69 1;
