#N canvas 369 281 451 524 12;
#X obj 67 454 writesf~ 2;
#X obj 68 42 inlet~;
#X obj 135 42 inlet~;
#X msg 217 268 open \$1;
#X msg 291 269 start;
#X msg 348 269 stop;
#X obj 316 52 tgl 25 0 empty empty Rec 4 12 0 10 #fc0400 #000000 #000000 0 1;
#X obj 316 84 sel 1;
#X obj 185 140 t b b;
#X obj 217 230 makefilename rec-%d.wav;
#X obj 217 176 random 999999;
#X floatatom 226 201 10 0 0 0 - - - 0;
#X text 169 17 Rekam file audio;
#X connect 1 0 0 0;
#X connect 2 0 0 1;
#X connect 3 0 0 0;
#X connect 4 0 0 0;
#X connect 5 0 0 0;
#X connect 6 0 7 0;
#X connect 7 0 8 0;
#X connect 7 1 5 0;
#X connect 8 0 4 0;
#X connect 8 1 10 0;
#X connect 9 0 3 0;
#X connect 10 0 9 0;
#X connect 10 0 11 0;
#X coords 0 -1 1 1 100 30 1 245 50;
